<svg width="167" height="180" viewBox="0 0 167 180" fill="none" xmlns="http://www.w3.org/2000/svg">
<path d="M159.745 40.7135L89.62 2.34395C87.7463 1.30867 85.6407 0.765625 83.5 0.765625C81.3593 0.765625 79.2537 1.30867 77.38 2.34395L7.255 40.7294C5.25236 41.8252 3.58064 43.4385 2.4144 45.4009C1.24816 47.3633 0.630182 49.6029 0.625 51.8857V128.099C0.630182 130.382 1.24816 132.621 2.4144 134.584C3.58064 136.546 5.25236 138.159 7.255 139.255L77.38 177.641C79.2537 178.676 81.3593 179.219 83.5 179.219C85.6407 179.219 87.7463 178.676 89.62 177.641L159.745 139.255C161.748 138.159 163.419 136.546 164.586 134.584C165.752 132.621 166.37 130.382 166.375 128.099V51.8936C166.374 49.6068 165.758 47.3623 164.592 45.3952C163.425 43.4282 161.751 41.8112 159.745 40.7135ZM83.5 13.5002L147.529 48.5627L123.798 61.5438L59.7691 26.4813L83.5 13.5002ZM83.5 83.6252L19.4711 48.5627L46.4931 33.7647L110.522 68.8272L83.5 83.6252ZM153.625 128.131L89.875 163.026V94.646L115.375 80.6927V109.125C115.375 110.816 116.047 112.437 117.242 113.633C118.438 114.829 120.059 115.5 121.75 115.5C123.441 115.5 125.062 114.829 126.258 113.633C127.453 112.437 128.125 110.816 128.125 109.125V73.7121L153.625 59.7588V128.099V128.131Z" fill="#0059FF"/>
</svg>
