<svg width="24" height="18" viewBox="0 0 24 18" fill="none" xmlns="http://www.w3.org/2000/svg">
<path d="M9.06374 2.42513C9.01945 2.37661 8.98868 2.31731 8.97452 2.25315C8.96036 2.189 8.9633 2.12226 8.98305 2.0596C9.00279 1.99694 9.03865 1.94057 9.08704 1.89613C9.13542 1.85169 9.19463 1.82074 9.25874 1.80638C10.158 1.60089 11.0776 1.49805 12 1.49982C15.27 1.49982 18.2409 2.74294 20.5931 5.09513C22.3584 6.86044 23.1525 8.62201 23.1853 8.69607C23.2279 8.79199 23.25 8.89579 23.25 9.00076C23.25 9.10573 23.2279 9.20953 23.1853 9.30544C23.1525 9.37951 22.3584 11.1401 20.5931 12.9054C20.3256 13.1717 20.0509 13.4239 19.7691 13.662C19.6949 13.725 19.5992 13.7567 19.5021 13.7504C19.405 13.7441 19.3141 13.7003 19.2487 13.6283L9.06374 2.42513ZM20.055 16.7454C20.1226 16.8181 20.1751 16.9034 20.2095 16.9965C20.2439 17.0896 20.2595 17.1886 20.2554 17.2878C20.2512 17.3869 20.2275 17.4843 20.1854 17.5742C20.1434 17.6641 20.0839 17.7448 20.0105 17.8115C19.937 17.8783 19.851 17.9298 19.7575 17.9631C19.664 17.9963 19.5649 18.0107 19.4657 18.0054C19.3666 18.0001 19.2696 17.9751 19.1802 17.932C19.0908 17.8889 19.0109 17.8284 18.945 17.7542L16.875 15.4808C15.3398 16.1597 13.6786 16.507 12 16.4998C8.72999 16.4998 5.75905 15.2567 3.40687 12.9054C1.64155 11.1401 0.843741 9.37951 0.814679 9.30544C0.772035 9.20953 0.75 9.10573 0.75 9.00076C0.75 8.89579 0.772035 8.79199 0.814679 8.69607C0.843741 8.62482 1.64155 6.86044 3.40687 5.09513C4.11214 4.38661 4.89887 3.76415 5.75062 3.24076L3.94499 1.25419C3.87737 1.18155 3.82483 1.09621 3.79043 1.00311C3.75603 0.910015 3.74045 0.811017 3.7446 0.711856C3.74874 0.612694 3.77252 0.515341 3.81457 0.425439C3.85661 0.335537 3.91608 0.254873 3.98953 0.188124C4.06298 0.121375 4.14895 0.0698676 4.24245 0.0365872C4.33595 0.00330681 4.43513 -0.0110845 4.53423 -0.00575291C4.63334 -0.000421266 4.7304 0.0245275 4.81979 0.0676472C4.90918 0.110767 4.98913 0.1712 5.05499 0.245444L20.055 16.7454ZM13.9153 12.222L8.97562 6.78451C8.46662 7.48191 8.21386 8.33359 8.26002 9.19575C8.30618 10.0579 8.64844 10.8777 9.22899 11.5168C9.80955 12.1559 10.5928 12.575 11.4466 12.7035C12.3004 12.832 13.1724 12.6619 13.9153 12.222Z" fill="#0E275D"/>
</svg>
