<svg width="24" height="16" viewBox="0 0 24 16" fill="none" xmlns="http://www.w3.org/2000/svg">
<path d="M23.1853 7.69625C23.1525 7.62219 22.3584 5.86062 20.5931 4.09531C18.2409 1.74312 15.27 0.5 12 0.5C8.72999 0.5 5.75905 1.74312 3.40687 4.09531C1.64155 5.86062 0.843741 7.625 0.814679 7.69625C0.772035 7.79217 0.75 7.89597 0.75 8.00094C0.75 8.10591 0.772035 8.20971 0.814679 8.30562C0.847491 8.37969 1.64155 10.1403 3.40687 11.9056C5.75905 14.2569 8.72999 15.5 12 15.5C15.27 15.5 18.2409 14.2569 20.5931 11.9056C22.3584 10.1403 23.1525 8.37969 23.1853 8.30562C23.2279 8.20971 23.25 8.10591 23.25 8.00094C23.25 7.89597 23.2279 7.79217 23.1853 7.69625ZM12 11.75C11.2583 11.75 10.5333 11.5301 9.9166 11.118C9.29992 10.706 8.81927 10.1203 8.53544 9.43506C8.25161 8.74984 8.17735 7.99584 8.32205 7.26841C8.46674 6.54098 8.82389 5.8728 9.34834 5.34835C9.87279 4.8239 10.541 4.46675 11.2684 4.32205C11.9958 4.17736 12.7498 4.25162 13.4351 4.53545C14.1203 4.81928 14.7059 5.29993 15.118 5.91661C15.5301 6.5333 15.75 7.25832 15.75 8C15.75 8.99456 15.3549 9.94839 14.6516 10.6517C13.9484 11.3549 12.9946 11.75 12 11.75Z" fill="#0E275D"/>
</svg>
