<svg width="18" height="16" viewBox="0 0 18 16" fill="none" xmlns="http://www.w3.org/2000/svg">
<path d="M0 3.50009C0 3.30118 0.0790178 3.11041 0.21967 2.96976C0.360322 2.82911 0.551088 2.75009 0.75 2.75009H4.23469C4.39635 2.20857 4.72845 1.73367 5.18163 1.39602C5.63481 1.05836 6.18486 0.875977 6.75 0.875977C7.31514 0.875977 7.86519 1.05836 8.31837 1.39602C8.77155 1.73367 9.10365 2.20857 9.26531 2.75009H17.25C17.4489 2.75009 17.6397 2.82911 17.7803 2.96976C17.921 3.11041 18 3.30118 18 3.50009C18 3.699 17.921 3.88977 17.7803 4.03042C17.6397 4.17107 17.4489 4.25009 17.25 4.25009H9.26531C9.10365 4.79162 8.77155 5.26651 8.31837 5.60417C7.86519 5.94182 7.31514 6.12421 6.75 6.12421C6.18486 6.12421 5.63481 5.94182 5.18163 5.60417C4.72845 5.26651 4.39635 4.79162 4.23469 4.25009H0.75C0.551088 4.25009 0.360322 4.17107 0.21967 4.03042C0.0790178 3.88977 0 3.699 0 3.50009ZM17.25 11.7501H15.2653C15.1037 11.2086 14.7715 10.7337 14.3184 10.396C13.8652 10.0584 13.3151 9.87598 12.75 9.87598C12.1849 9.87598 11.6348 10.0584 11.1816 10.396C10.7285 10.7337 10.3963 11.2086 10.2347 11.7501H0.75C0.551088 11.7501 0.360322 11.8291 0.21967 11.9698C0.0790178 12.1104 0 12.3012 0 12.5001C0 12.699 0.0790178 12.8898 0.21967 13.0304C0.360322 13.1711 0.551088 13.2501 0.75 13.2501H10.2347C10.3963 13.7916 10.7285 14.2665 11.1816 14.6042C11.6348 14.9418 12.1849 15.1242 12.75 15.1242C13.3151 15.1242 13.8652 14.9418 14.3184 14.6042C14.7715 14.2665 15.1037 13.7916 15.2653 13.2501H17.25C17.4489 13.2501 17.6397 13.1711 17.7803 13.0304C17.921 12.8898 18 12.699 18 12.5001C18 12.3012 17.921 12.1104 17.7803 11.9698C17.6397 11.8291 17.4489 11.7501 17.25 11.7501Z" fill="#56688E"/>
</svg>
