<svg width="32" height="32" viewBox="0 0 32 32" fill="none" xmlns="http://www.w3.org/2000/svg">
<g clip-path="url(#clip0_1575_9295)">
<path d="M7.52396 16.19C7.49954 16.2649 7.45776 16.333 7.40201 16.3887C7.34627 16.4444 7.27814 16.4862 7.20319 16.5105C7.12824 16.5349 7.04859 16.5412 6.97074 16.529C6.89288 16.5167 6.81903 16.4862 6.75521 16.44L2.83396 13.625C2.48585 13.3789 2.22682 13.0267 2.09567 12.6211C1.96452 12.2154 1.9683 11.7782 2.10646 11.375C2.24613 10.9704 2.50943 10.62 2.85913 10.3732C3.20883 10.1265 3.62724 9.99592 4.05521 9.99996H8.84396C8.92298 9.99982 9.00092 10.0184 9.07136 10.0542C9.14181 10.09 9.20277 10.142 9.24924 10.2059C9.29572 10.2698 9.32638 10.3439 9.33871 10.4219C9.35105 10.5 9.34471 10.5798 9.32021 10.655L7.52396 16.19ZM6.64896 25.375C6.51377 25.7762 6.51154 26.2103 6.64259 26.6129C6.77364 27.0155 7.03099 27.3652 7.37646 27.61C7.71569 27.8619 8.12703 27.998 8.54959 27.998C8.97215 27.998 9.38348 27.8619 9.72271 27.61L13.729 24.7275C13.7935 24.6812 13.846 24.6202 13.8823 24.5495C13.9186 24.4789 13.9375 24.4006 13.9375 24.3212C13.9375 24.2418 13.9186 24.1635 13.8823 24.0929C13.846 24.0222 13.7935 23.9613 13.729 23.915L8.92396 20.465C8.86016 20.419 8.78641 20.3887 8.70871 20.3766C8.63101 20.3644 8.55154 20.3708 8.47676 20.3952C8.40199 20.4195 8.33401 20.4612 8.27836 20.5168C8.2227 20.5723 8.18094 20.6402 8.15646 20.715L6.64896 25.375ZM17.9052 2.40746C17.7806 2.0003 17.5288 1.6438 17.1867 1.39029C16.8446 1.13678 16.4302 0.999603 16.0044 0.998904C15.5786 0.998205 15.1638 1.13402 14.8208 1.3864C14.4779 1.63879 14.2249 1.99446 14.099 2.40121L12.5015 7.34496C12.4771 7.41959 12.4707 7.4989 12.4827 7.57648C12.4947 7.65405 12.5248 7.72771 12.5706 7.79149C12.6163 7.85527 12.6765 7.90737 12.7461 7.94359C12.8158 7.97981 12.893 7.99912 12.9715 7.99996H19.0315C19.1103 8.00003 19.1881 7.98145 19.2584 7.94572C19.3288 7.90998 19.3896 7.85812 19.4361 7.79437C19.4825 7.73061 19.5132 7.65677 19.5257 7.57889C19.5381 7.501 19.532 7.42127 19.5077 7.34621L17.9052 2.40746ZM20.0015 9.99996H12.0015C11.8959 10.0001 11.793 10.0337 11.7077 10.0959C11.6224 10.1581 11.5589 10.2457 11.5265 10.3462L9.12646 17.7212C9.09382 17.822 9.09403 17.9305 9.12705 18.0312C9.16008 18.1318 9.22421 18.2194 9.31021 18.2812L15.7065 22.8837C15.7916 22.9451 15.894 22.9782 15.999 22.9782C16.104 22.9782 16.2063 22.9451 16.2915 22.8837L22.6877 18.2812C22.7737 18.2194 22.8378 18.1318 22.8709 18.0312C22.9039 17.9305 22.9041 17.822 22.8715 17.7212L20.4777 10.3462C20.4452 10.2455 20.3815 10.1578 20.296 10.0955C20.2104 10.0333 20.1073 9.99986 20.0015 9.99996ZM29.8927 11.375C29.753 10.9704 29.4897 10.62 29.14 10.3732C28.7903 10.1265 28.3719 9.99592 27.944 9.99996H23.159C23.0799 9.99982 23.002 10.0184 22.9316 10.0542C22.8611 10.09 22.8001 10.142 22.7537 10.2059C22.7072 10.2698 22.6765 10.3439 22.6642 10.4219C22.6519 10.5 22.6582 10.5798 22.6827 10.655L24.479 16.1912C24.5034 16.2659 24.5452 16.3339 24.6009 16.3894C24.6565 16.445 24.7245 16.4866 24.7993 16.511C24.874 16.5353 24.9535 16.5417 25.0312 16.5296C25.1089 16.5175 25.1827 16.4872 25.2465 16.4412L29.1727 13.6162C29.5188 13.3706 29.7763 13.0196 29.9067 12.6157C30.0371 12.2119 30.0335 11.7766 29.8965 11.375H29.8927ZM23.074 20.4687L18.274 23.9225C18.2094 23.9688 18.1569 24.0297 18.1206 24.1004C18.0844 24.171 18.0654 24.2493 18.0654 24.3287C18.0654 24.4081 18.0844 24.4864 18.1206 24.557C18.1569 24.6277 18.2094 24.6887 18.274 24.735L22.274 27.61C22.6155 27.8605 23.0277 27.9962 23.4512 27.9974C23.8748 27.9986 24.2878 27.8654 24.6307 27.6168C24.9737 27.3682 25.2289 27.0172 25.3595 26.6143C25.4902 26.2114 25.4895 25.7775 25.3577 25.375L23.8465 20.7162C23.8222 20.6412 23.7805 20.5729 23.7248 20.5171C23.6691 20.4612 23.601 20.4193 23.5261 20.3948C23.4511 20.3703 23.3714 20.3639 23.2935 20.3761C23.2155 20.3883 23.1416 20.4187 23.0777 20.465L23.074 20.4687Z" fill="#56688E"/>
</g>
<defs>
<clipPath id="clip0_1575_9295">
<rect width="32" height="32" fill="white"/>
</clipPath>
</defs>
</svg>
