<svg width="18" height="19" viewBox="0 0 18 19" fill="none" xmlns="http://www.w3.org/2000/svg">
<path d="M18 9.5C18 9.69891 17.921 9.88968 17.7803 10.0303C17.6397 10.171 17.4489 10.25 17.25 10.25H9.75V17.75C9.75 17.9489 9.67098 18.1397 9.53033 18.2803C9.38968 18.421 9.19891 18.5 9 18.5C8.80109 18.5 8.61032 18.421 8.46967 18.2803C8.32902 18.1397 8.25 17.9489 8.25 17.75V10.25H0.75C0.551088 10.25 0.360322 10.171 0.21967 10.0303C0.0790178 9.88968 0 9.69891 0 9.5C0 9.30109 0.0790178 9.11032 0.21967 8.96967C0.360322 8.82902 0.551088 8.75 0.75 8.75H8.25V1.25C8.25 1.05109 8.32902 0.860322 8.46967 0.71967C8.61032 0.579018 8.80109 0.5 9 0.5C9.19891 0.5 9.38968 0.579018 9.53033 0.71967C9.67098 0.860322 9.75 1.05109 9.75 1.25V8.75H17.25C17.4489 8.75 17.6397 8.82902 17.7803 8.96967C17.921 9.11032 18 9.30109 18 9.5Z" fill="#0059FF"/>
</svg>
