<svg width="24" height="24" viewBox="0 0 24 24" fill="none" xmlns="http://www.w3.org/2000/svg">
<path d="M11.1781 0.593885C11.442 -0.197962 12.5602 -0.197962 12.8242 0.593885L14.3719 5.24179C14.7125 6.26351 15.2865 7.19185 16.0483 7.95321C16.81 8.71457 17.7387 9.28803 18.7606 9.62814L23.4061 11.1758C24.198 11.4398 24.198 12.558 23.4061 12.8219L18.7582 14.3696C17.7365 14.7103 16.8082 15.2843 16.0468 16.046C15.2854 16.8078 14.712 17.7365 14.3719 18.7584L12.8242 23.4039C12.7673 23.5773 12.657 23.7283 12.5092 23.8353C12.3614 23.9424 12.1836 24 12.0011 24C11.8186 24 11.6408 23.9424 11.493 23.8353C11.3452 23.7283 11.235 23.5773 11.1781 23.4039L9.63037 18.756C9.28995 17.7345 8.71634 16.8063 7.955 16.045C7.19366 15.2837 6.26549 14.7101 5.24402 14.3696L0.596117 12.8219C0.422724 12.765 0.271732 12.6548 0.164684 12.507C0.0576357 12.3592 0 12.1814 0 11.9989C0 11.8164 0.0576357 11.6386 0.164684 11.4908C0.271732 11.343 0.422724 11.2327 0.596117 11.1758L5.24402 9.62814C6.26549 9.28771 7.19366 8.71411 7.955 7.95277C8.71634 7.19142 9.28995 6.26326 9.63037 5.24179L11.1781 0.593885Z" fill="#D9D9D9"/>
</svg>
