<svg width="32" height="16" viewBox="0 0 32 16" fill="none" xmlns="http://www.w3.org/2000/svg">
<g clip-path="url(#clip0_493_13364)">
<path d="M0 0H32V16H0" fill="#B31942"/>
<path d="M0 1.84619H32H0ZM32 4.30773H0H32ZM0 6.76927H32H0ZM32 9.23081H0H32ZM0 11.6923H32H0ZM32 14.1539H0H32Z" fill="black"/>
<path d="M0 1.84619H32M32 4.30773H0M0 6.76927H32M32 9.23081H0M0 11.6923H32M32 14.1539H0" stroke="white" stroke-width="1.24158"/>
<path d="M0 0H12.8V8.61539H0" fill="#0A3161"/>
<path d="M1.06317 0.374023L1.36777 1.26462L0.570312 0.7142H1.55602L0.758566 1.26462L1.06317 0.374023Z" fill="white"/>
<path d="M1.06317 2.09814L1.36777 2.98874L0.570312 2.43832H1.55602L0.758566 2.98874L1.06317 2.09814Z" fill="white"/>
<path d="M1.06317 3.81934L1.36777 4.70993L0.570312 4.15951H1.55602L0.758566 4.70993L1.06317 3.81934Z" fill="white"/>
<path d="M1.06317 5.54346L1.36777 6.43405L0.570312 5.88363H1.55602L0.758566 6.43405L1.06317 5.54346Z" fill="white"/>
<path d="M1.06317 7.26465L1.36777 8.15524L0.570312 7.60482H1.55602L0.758566 8.15524L1.06317 7.26465Z" fill="white"/>
<path d="M2.13348 1.2334L2.43808 2.12399L1.64062 1.57357H2.62634L1.82888 2.12399L2.13348 1.2334Z" fill="white"/>
<path d="M2.13348 2.95752L2.43808 3.84811L1.64062 3.2977H2.62634L1.82888 3.84811L2.13348 2.95752Z" fill="white"/>
<path d="M2.13348 4.67871L2.43808 5.5693L1.64062 5.01889H2.62634L1.82888 5.5693L2.13348 4.67871Z" fill="white"/>
<path d="M2.13348 6.40283L2.43808 7.29343L1.64062 6.74301H2.62634L1.82888 7.29343L2.13348 6.40283Z" fill="white"/>
<path d="M3.19598 0.374023L3.50058 1.26462L2.70312 0.7142H3.68884L2.89138 1.26462L3.19598 0.374023Z" fill="white"/>
<path d="M3.19598 2.09814L3.50058 2.98874L2.70312 2.43832H3.68884L2.89138 2.98874L3.19598 2.09814Z" fill="white"/>
<path d="M3.19598 3.81934L3.50058 4.70993L2.70312 4.15951H3.68884L2.89138 4.70993L3.19598 3.81934Z" fill="white"/>
<path d="M3.19598 5.54346L3.50058 6.43405L2.70312 5.88363H3.68884L2.89138 6.43405L3.19598 5.54346Z" fill="white"/>
<path d="M3.19598 7.26709L3.50058 8.15768L2.70312 7.60727H3.68884L2.89138 8.15768L3.19598 7.26709Z" fill="white"/>
<path d="M4.26629 1.2334L4.57089 2.12399L3.77344 1.57357H4.75915L3.96169 2.12399L4.26629 1.2334Z" fill="white"/>
<path d="M4.26629 2.95752L4.57089 3.84811L3.77344 3.2977H4.75915L3.96169 3.84811L4.26629 2.95752Z" fill="white"/>
<path d="M4.26629 4.67871L4.57089 5.5693L3.77344 5.01889H4.75915L3.96169 5.5693L4.26629 4.67871Z" fill="white"/>
<path d="M4.26629 6.40283L4.57089 7.29343L3.77344 6.74301H4.75915L3.96169 7.29343L4.26629 6.40283Z" fill="white"/>
<path d="M5.32879 0.374023L5.63339 1.26462L4.83594 0.7142H5.82165L5.02419 1.26462L5.32879 0.374023Z" fill="white"/>
<path d="M5.32879 2.09814L5.63339 2.98874L4.83594 2.43832H5.82165L5.02419 2.98874L5.32879 2.09814Z" fill="white"/>
<path d="M5.32879 3.81934L5.63339 4.70993L4.83594 4.15951H5.82165L5.02419 4.70993L5.32879 3.81934Z" fill="white"/>
<path d="M5.32879 5.54346L5.63339 6.43405L4.83594 5.88363H5.82165L5.02419 6.43405L5.32879 5.54346Z" fill="white"/>
<path d="M5.32879 7.26709L5.63339 8.15768L4.83594 7.60727H5.82165L5.02419 8.15768L5.32879 7.26709Z" fill="white"/>
<path d="M6.39911 1.2334L6.70371 2.12399L5.90625 1.57357H6.89196L6.0945 2.12399L6.39911 1.2334Z" fill="white"/>
<path d="M6.39911 2.95752L6.70371 3.84811L5.90625 3.2977H6.89196L6.0945 3.84811L6.39911 2.95752Z" fill="white"/>
<path d="M6.39911 4.67871L6.70371 5.5693L5.90625 5.01889H6.89196L6.0945 5.5693L6.39911 4.67871Z" fill="white"/>
<path d="M6.39911 6.40283L6.70371 7.29343L5.90625 6.74301H6.89196L6.0945 7.29343L6.39911 6.40283Z" fill="white"/>
<path d="M7.46161 0.374023L7.76621 1.26462L6.96875 0.7142H7.95446L7.157 1.26462L7.46161 0.374023Z" fill="white"/>
<path d="M7.46161 2.09814L7.76621 2.98874L6.96875 2.43832H7.95446L7.157 2.98874L7.46161 2.09814Z" fill="white"/>
<path d="M7.46161 3.81934L7.76621 4.70993L6.96875 4.15951H7.95446L7.157 4.70993L7.46161 3.81934Z" fill="white"/>
<path d="M7.46161 5.54346L7.76621 6.43405L6.96875 5.88363H7.95446L7.157 6.43405L7.46161 5.54346Z" fill="white"/>
<path d="M7.46161 7.26709L7.76621 8.15768L6.96875 7.60727H7.95446L7.157 8.15768L7.46161 7.26709Z" fill="white"/>
<path d="M8.53192 1.2334L8.83652 2.12399L8.03906 1.57357H9.02477L8.22732 2.12399L8.53192 1.2334Z" fill="white"/>
<path d="M8.53192 2.95752L8.83652 3.84811L8.03906 3.2977H9.02477L8.22732 3.84811L8.53192 2.95752Z" fill="white"/>
<path d="M8.53192 4.67871L8.83652 5.5693L8.03906 5.01889H9.02477L8.22732 5.5693L8.53192 4.67871Z" fill="white"/>
<path d="M8.53192 6.40283L8.83652 7.29343L8.03906 6.74301H9.02477L8.22732 7.29343L8.53192 6.40283Z" fill="white"/>
<path d="M9.59442 0.369629L9.89902 1.26022L9.10156 0.709805H10.0873L9.28982 1.26022L9.59442 0.369629Z" fill="white"/>
<path d="M9.59442 2.09375L9.89902 2.98434L9.10156 2.43393H10.0873L9.28982 2.98434L9.59442 2.09375Z" fill="white"/>
<path d="M9.59442 3.81494L9.89902 4.70553L9.10156 4.15512H10.0873L9.28982 4.70553L9.59442 3.81494Z" fill="white"/>
<path d="M9.59442 5.53906L9.89902 6.42966L9.10156 5.87924H10.0873L9.28982 6.42966L9.59442 5.53906Z" fill="white"/>
<path d="M9.59442 7.26367L9.89902 8.15426L9.10156 7.60385H10.0873L9.28982 8.15426L9.59442 7.26367Z" fill="white"/>
<path d="M10.6647 1.22949L10.9693 2.12009L10.1719 1.56967H11.1576L10.3601 2.12009L10.6647 1.22949Z" fill="white"/>
<path d="M10.6647 2.95068L10.9693 3.84128L10.1719 3.29086H11.1576L10.3601 3.84128L10.6647 2.95068Z" fill="white"/>
<path d="M10.6647 4.6748L10.9693 5.5654L10.1719 5.01498H11.1576L10.3601 5.5654L10.6647 4.6748Z" fill="white"/>
<path d="M10.6647 6.39893L10.9693 7.28952L10.1719 6.7391H11.1576L10.3601 7.28952L10.6647 6.39893Z" fill="white"/>
<path d="M11.7272 0.370117L12.0318 1.26071L11.2344 0.710293H12.2201L11.4226 1.26071L11.7272 0.370117Z" fill="white"/>
<path d="M11.7272 2.09424L12.0318 2.98483L11.2344 2.43441H12.2201L11.4226 2.98483L11.7272 2.09424Z" fill="white"/>
<path d="M11.7272 3.81543L12.0318 4.70602L11.2344 4.15561H12.2201L11.4226 4.70602L11.7272 3.81543Z" fill="white"/>
<path d="M11.7272 5.53955L12.0318 6.43014L11.2344 5.87973H12.2201L11.4226 6.43014L11.7272 5.53955Z" fill="white"/>
<path d="M11.7272 7.26416L12.0318 8.15475L11.2344 7.60434H12.2201L11.4226 8.15475L11.7272 7.26416Z" fill="white"/>
</g>
<defs>
<clipPath id="clip0_493_13364">
<rect width="32" height="16" fill="white"/>
</clipPath>
</defs>
</svg>
