<svg width="24" height="25" viewBox="0 0 24 25" fill="none" xmlns="http://www.w3.org/2000/svg">
<path d="M11.625 16.6812C11.7383 16.746 11.8666 16.78 11.9972 16.78C12.1277 16.78 12.256 16.746 12.3694 16.6812C12.5991 16.549 17.9944 13.3999 17.9944 7.77961C17.9472 6.22082 17.2951 4.74164 16.176 3.65548C15.0569 2.56932 13.559 1.96155 11.9995 1.96094C10.44 1.96033 8.94151 2.56693 7.8216 3.65222C6.7017 4.7375 6.04835 6.21617 6 7.77492C6 13.3999 11.3981 16.5443 11.625 16.6812ZM12 5.52492C12.445 5.52492 12.88 5.65688 13.25 5.90411C13.62 6.15135 13.9084 6.50275 14.0787 6.91388C14.249 7.32501 14.2936 7.77741 14.2068 8.21387C14.12 8.65033 13.9057 9.05124 13.591 9.36591C13.2763 9.68058 12.8754 9.89487 12.439 9.98169C12.0025 10.0685 11.5501 10.0239 11.139 9.85365C10.7278 9.68335 10.3764 9.39496 10.1292 9.02495C9.88196 8.65494 9.75 8.21993 9.75 7.77492C9.75 7.17818 9.98705 6.60589 10.409 6.18393C10.831 5.76197 11.4033 5.52492 12 5.52492ZM22.5 17.5249C22.5 20.448 17.0897 22.0249 12 22.0249C6.91031 22.0249 1.5 20.448 1.5 17.5249C1.5 16.1571 2.73937 14.9459 4.99031 14.1152C5.17491 14.0542 5.37596 14.0673 5.5511 14.1517C5.72624 14.2361 5.86178 14.3852 5.92913 14.5675C5.99648 14.7499 5.99039 14.9513 5.91215 15.1293C5.8339 15.3072 5.6896 15.4478 5.50969 15.5215C3.96187 16.0943 3 16.8612 3 17.5249C3 18.7774 6.42375 20.5249 12 20.5249C17.5763 20.5249 21 18.7774 21 17.5249C21 16.8612 20.0381 16.0943 18.4903 15.5224C18.3104 15.4488 18.1661 15.3081 18.0879 15.1302C18.0096 14.9522 18.0035 14.7508 18.0709 14.5685C18.1382 14.3861 18.2738 14.237 18.4489 14.1526C18.624 14.0683 18.8251 14.0552 19.0097 14.1162C21.2606 14.9459 22.5 16.1571 22.5 17.5249Z" fill="#0059FF"/>
</svg>
