<svg width="24" height="24" viewBox="0 0 24 24" fill="none" xmlns="http://www.w3.org/2000/svg">
<path d="M23.9466 10.9688L22.6341 7.6875C22.5227 7.40973 22.3304 7.17184 22.0821 7.00467C21.8339 6.83751 21.5412 6.74878 21.2419 6.75H18V6C18 5.80109 17.921 5.61032 17.7803 5.46967C17.6397 5.32902 17.4489 5.25 17.25 5.25H3C2.60218 5.25 2.22064 5.40804 1.93934 5.68934C1.65804 5.97064 1.5 6.35218 1.5 6.75V17.25C1.5 17.6478 1.65804 18.0294 1.93934 18.3107C2.22064 18.592 2.60218 18.75 3 18.75H4.59375C4.75898 19.3953 5.13428 19.9673 5.66048 20.3757C6.18669 20.7842 6.83387 21.0059 7.5 21.0059C8.16613 21.0059 8.81331 20.7842 9.33952 20.3757C9.86572 19.9673 10.241 19.3953 10.4062 18.75H15.0938C15.259 19.3953 15.6343 19.9673 16.1605 20.3757C16.6867 20.7842 17.3339 21.0059 18 21.0059C18.6661 21.0059 19.3133 20.7842 19.8395 20.3757C20.3657 19.9673 20.741 19.3953 20.9062 18.75H22.5C22.8978 18.75 23.2794 18.592 23.5607 18.3107C23.842 18.0294 24 17.6478 24 17.25V11.25C24.0001 11.1537 23.982 11.0583 23.9466 10.9688ZM7.5 19.5C7.20333 19.5 6.91332 19.412 6.66665 19.2472C6.41997 19.0824 6.22771 18.8481 6.11418 18.574C6.00065 18.2999 5.97094 17.9983 6.02882 17.7074C6.0867 17.4164 6.22956 17.1491 6.43934 16.9393C6.64912 16.7296 6.91639 16.5867 7.20736 16.5288C7.49834 16.4709 7.79994 16.5006 8.07403 16.6142C8.34811 16.7277 8.58238 16.92 8.7472 17.1666C8.91203 17.4133 9 17.7033 9 18C9 18.3978 8.84196 18.7794 8.56066 19.0607C8.27936 19.342 7.89782 19.5 7.5 19.5ZM3 12.75V6.75H16.5V12.75H3ZM18 19.5C17.7033 19.5 17.4133 19.412 17.1666 19.2472C16.92 19.0824 16.7277 18.8481 16.6142 18.574C16.5006 18.2999 16.4709 17.9983 16.5288 17.7074C16.5867 17.4164 16.7296 17.1491 16.9393 16.9393C17.1491 16.7296 17.4164 16.5867 17.7074 16.5288C17.9983 16.4709 18.2999 16.5006 18.574 16.6142C18.8481 16.7277 19.0824 16.92 19.2472 17.1666C19.412 17.4133 19.5 17.7033 19.5 18C19.5 18.3978 19.342 18.7794 19.0607 19.0607C18.7794 19.342 18.3978 19.5 18 19.5ZM18 10.5V8.25H21.2419L22.1419 10.5H18Z" fill="#0E275D"/>
</svg>
