<svg width="62" height="62" viewBox="0 0 62 62" fill="none" xmlns="http://www.w3.org/2000/svg">
<path d="M31.1875 6C17.2775 6 6 17.2775 6 31.1875C6 45.0975 17.2775 56.375 31.1875 56.375C45.0975 56.375 56.375 45.0975 56.375 31.1875C56.375 17.2775 45.0975 6 31.1875 6Z" stroke="#0E275D" stroke-width="2.5" stroke-miterlimit="10"/>
<path d="M31.1905 6C24.1586 6 17.5469 17.2775 17.5469 31.1875C17.5469 45.0975 24.1586 56.375 31.1905 56.375C38.2224 56.375 44.8341 45.0975 44.8341 31.1875C44.8341 17.2775 38.2224 6 31.1905 6Z" stroke="#0E275D" stroke-width="2.5" stroke-miterlimit="10"/>
<path d="M14.3984 14.3955C19.0291 17.6832 24.8585 19.6437 31.1905 19.6437C37.5225 19.6437 43.352 17.6832 47.9826 14.3955M47.9826 47.9797C43.352 44.692 37.5225 42.7314 31.1905 42.7314C24.8585 42.7314 19.0291 44.692 14.3984 47.9797" stroke="#0E275D" stroke-width="2.5" stroke-linecap="round" stroke-linejoin="round"/>
<path d="M31.1875 6V56.375M56.375 31.1875H6" stroke="#0E275D" stroke-width="2.5" stroke-miterlimit="10"/>
</svg>
